<?xml version="1.0" encoding="UTF-8" standalone="no"?>
<!-- Created with Inkscape (http://www.inkscape.org/) -->

<svg
   width="470"
   height="470"
   viewBox="0 0 124.35416 124.35417"
   version="1.1"
   id="svg1"
   xmlns="http://www.w3.org/2000/svg"
   xmlns:svg="http://www.w3.org/2000/svg">
  <defs
     id="defs1">
    <clipPath
       id="ic">
      <rect
         x="40"
         y="40"
         width="944"
         height="944"
         rx="210"
         id="rect1-0" />
    </clipPath>
    <filter
       id="filter3837"
       height="1"
       width="1"
       y="0"
       x="0">
      <feTurbulence
         id="feTurbulence3839"
         numOctaves="4"
         seed="0"
         type="fractalNoise"
         baseFrequency="0.050000000000000003" />
      <feDiffuseLighting
         id="feDiffuseLighting3843"
         lighting-color="#f5f6ce"
         surfaceScale="0.5"
         kernelUnitLength="0.01"
         diffuseConstant="1.10000002">
        <feDistantLight
           id="feDistantLight3845"
           elevation="65"
           azimuth="75" />
      </feDiffuseLighting>
    </filter>
    <clipPath
       id="rounded_canvas">
      <rect
         x="0"
         y="0"
         width="124.35416"
         height="124.35417"
         rx="29.632999"
         ry="29.632999"
         id="rect1" />
    </clipPath>
  </defs>
  <g
     clip-path="url(#rounded_canvas)"
     id="g1">
    <g
       id="layer1"
       transform="translate(-1.3229166,-0.49574867)">
      <g
         id="background"
         transform="matrix(0.41451389,0,0,0.41451389,-34.236988,-57.643967)"
         style="stroke-width:0.638298">
        <rect
           id="rect3722"
           style="color:#000000;mix-blend-mode:normal;fill-rule:evenodd;stroke-width:0.638298;filter:url(#filter3837)"
           height="300"
           width="300"
           y="140.25999"
           x="85.787003" />
      </g>
      <path
         id="topmost_spike"
         style="fill:#042e5b;stroke-width:0.264582"
         d="m 17.713855,23.514499 h 41.010417 v 4.233333 H 17.713855 Z" />
      <g
         clip-path="url(#ic)"
         id="letter_a"
         transform="matrix(0.09921888,0,0,0.09921875,36.710833,13.063457)"
         style="stroke-width:2.80473">
        <!-- LEFT LEG &#8212; pointed apex, thick, straight vertical outer left -->
        <!-- Outer left: x=160 straight down. Inner: x=380 straight down. Apex tip: x=270,y=100 -->
        <polygon
           points="380,900 160,900 270,100 380,100 "
           fill="#138ec7"
           id="polygon2"
           style="display:inline;fill:#042e5b;fill-opacity:1;stroke-width:2.80473" />
        <!-- RIGHT LEG &#8212; shares apex point, splays to the right -->
        <polygon
           points="270,100 380,100 840,900 660,900 "
           fill="#138ec7"
           id="polygon3"
           style="display:inline;fill:#042e5b;fill-opacity:1;stroke-width:2.80473" />
        <!-- KINETIC SLASH &#8212; dark shading on right side of right leg -->
        <polygon
           points="340,100 380,100 840,900 800,900 "
           fill="#127db3"
           opacity="0.72"
           id="polygon4"
           style="display:inline;fill:#042e5b;fill-opacity:1;stroke-width:2.80473" />
        <!-- CROSSBAR &#8212; sits between left leg right edge and right leg inner edge -->
        <polygon
           points="128,137 100,152 176,152 176,137 "
           fill="#3CBBEB"
           style="color:#000000;font-weight:400;font-size:16px;font-family:'Anthropic Sans', '-apple-system', BlinkMacSystemFont, 'Segoe UI', sans-serif;dominant-baseline:auto;text-anchor:start;display:inline;fill:#042e5b;fill-opacity:1;stroke:none;stroke-width:2.80473px;stroke-linecap:butt;stroke-linejoin:miter"
           id="polygon3-5"
           transform="matrix(5.9935989,0,0,5.5199947,-515.09493,-245.87934)" />
        <!-- STREAKS &#8212; right side only, angled along right leg direction -->
      </g>
      <path
         id="bottom_spike"
         style="fill:#042e5b;stroke-width:0.264583"
         d="M 7.6001562,97.597832 H 48.610573 v 4.233328 H 7.6001562 Z" />
      <g
         id="spikes"
         transform="matrix(0.66,0,0,0.66,3.9687497,3.1415822)"
         style="display:none">
        <path
           d="m 20.2931,35.545 h 66.3463 v 10e-5 0.8017 h -8e-4 -66.3455 v 0 z"
           style="fill:#042e5b;stroke-width:0.400884"
           id="path7" />
        <path
           d="m 19.7602,39.4202 h 66.3463 v 10e-5 0.8017 h -7e-4 -66.3456 v 0 z"
           style="fill:#042e5b;stroke-width:0.400884"
           id="path8" />
        <path
           d="m 19.2274,43.2955 h 66.3463 v 0 0.8017 h -8e-4 -66.3455 v 0 z"
           style="fill:#042e5b;stroke-width:0.400884"
           id="path9" />
        <path
           d="m 18.6946,47.1707 h 66.3462 v 0 0.8017 h -7e-4 -66.3455 v 0 z"
           style="fill:#042e5b;stroke-width:0.400884"
           id="path10" />
        <path
           d="M 18.1617,51.0459 H 84.508 v 10e-5 0.8016 h -8e-4 -66.3455 v -1e-4 z"
           style="fill:#042e5b;stroke-width:0.400884"
           id="path11" />
        <path
           d="m 17.6289,54.9211 h 66.3462 v 10e-5 0.8017 h -7e-4 -66.3455 v -2e-4 z"
           style="fill:#042e5b;stroke-width:0.400884"
           id="path12" />
        <path
           d="m 17.096,58.7963 h 66.3463 v 10e-5 0.8017 h -8e-4 -66.3455 v -2e-4 z"
           style="fill:#042e5b;stroke-width:0.400884"
           id="path13" />
        <path
           d="m 16.5632,62.6715 h 66.3463 v 2e-4 0.8016 h -8e-4 -66.3455 v -2e-4 z"
           style="fill:#042e5b;stroke-width:0.400884"
           id="path14" />
        <path
           d="m 16.0303,66.5467 h 66.3463 v 2e-4 0.8016 h -7e-4 -66.3456 v -2e-4 z"
           style="fill:#042e5b;stroke-width:0.400884"
           id="path15" />
        <path
           d="m 15.4975,70.4219 h 66.3463 v 2e-4 0.8016 h -8e-4 -66.3455 v -2e-4 z"
           style="fill:#042e5b;stroke-width:0.400884"
           id="path16" />
        <path
           d="m 14.9647,74.2971 h 66.3462 v 2e-4 0.8016 h -7e-4 -66.3455 v -2e-4 z"
           style="fill:#042e5b;stroke-width:0.400884"
           id="path17" />
        <path
           d="m 14.4318,78.1723 h 66.3463 v 3e-4 0.8015 h -8e-4 -66.3455 v -2e-4 z"
           style="fill:#042e5b;stroke-width:0.400884"
           id="path18" />
        <path
           d="m 13.899,82.0476 h 66.3463 v 2e-4 0.8015 h -8e-4 -66.3455 v -2e-4 z"
           style="fill:#042e5b;stroke-width:0.400884"
           id="path19" />
        <path
           d="m 13.3661,85.9228 h 66.3463 v 2e-4 0.8015 h -7e-4 -66.3456 v -2e-4 z"
           style="fill:#042e5b;stroke-width:0.400884"
           id="path20" />
        <path
           d="m 12.8333,89.798 h 66.3463 v 3e-4 0.8014 h -8e-4 -66.3455 v -2e-4 z"
           style="fill:#042e5b;stroke-width:0.400884"
           id="path21" />
        <path
           d="m 12.3005,93.6732 h 66.3462 v 3e-4 0.8015 h -7e-4 -66.3455 v -4e-4 z"
           style="fill:#042e5b;stroke-width:0.400884"
           id="path22" />
        <path
           d="m 11.7676,97.5484 h 59.567731 v 3e-4 0.8015 H 71.334613 11.7676 v -4e-4 z"
           style="fill:#042e5b;stroke-width:0.400884"
           id="path23" />
        <path
           d="m 11.2348,101.424 h 52.24639 v 0 0.801 H 63.480639 11.2348 v 0 z"
           style="fill:#042e5b;stroke-width:0.400884"
           id="path24" />
        <path
           d="m 10.7019,105.299 h 66.3463 v 0 0.802 h -8e-4 -66.3455 V 106.1 Z"
           style="fill:#042e5b;stroke-width:0.400884"
           id="path25" />
        <path
           d="m 10.1691,109.174 h 66.3463 v 0 0.802 h -8e-4 -66.3455 v -0.001 z"
           style="fill:#042e5b;stroke-width:0.400884"
           id="path26" />
        <path
           d="M 9.63625,113.049 H 75.9825 v 10e-4 0.801 h -7e-4 -66.34555 v 0 z"
           style="fill:#042e5b;stroke-width:0.400884"
           id="path27" />
        <path
           d="m 9.1034,116.924 h 66.3463 v 10e-4 0.801 h -8e-4 -66.3455 v 0 z"
           style="fill:#042e5b;stroke-width:0.400884"
           id="path28" />
        <path
           d="M 8.57056,120.8 H 74.9168 v 0 0.801 h -7e-4 -66.34554 v 0 z"
           style="fill:#042e5b;stroke-width:0.400884"
           id="path29" />
        <path
           d="M 8.03772,124.675 H 74.384 v 0 0.802 h -8e-4 -66.34548 v -0.001 z"
           style="fill:#042e5b;stroke-width:0.400884"
           id="path30" />
        <path
           d="M 7.50488,128.55 H 73.8512 v 10e-4 0.801 h -8e-4 -66.34552 v -0.001 z"
           style="fill:#042e5b;stroke-width:0.400884"
           id="path31" />
        <path
           d="M 6.97204,132.425 H 73.3183 v 10e-4 0.801 h -7e-4 -66.34556 v 0 z"
           style="fill:#042e5b;stroke-width:0.400884"
           id="path32" />
        <path
           d="m 6.4392,136.3 h 66.3463 v 10e-4 0.801 h -8e-4 -66.3455 v 0 z"
           style="fill:#042e5b;stroke-width:0.400884"
           id="path33" />
        <path
           d="M 5.90636,140.176 H 72.2526 v 0 0.801 h -7e-4 -66.34554 v 0 z"
           style="fill:#042e5b;stroke-width:0.400884"
           id="path34" />
        <path
           d="M 5.37351,144.051 H 71.7198 v 0 0.802 H 71.719 5.37351 v -0.001 z"
           style="fill:#042e5b;stroke-width:0.400884"
           id="path35" />
      </g>
      <g
         id="g38"
         style="display:none">
        <path
           d="m 15.6038,37.5374 h 43.7885 v 6e-4 4.2327 h -5e-4 -43.788 v -6e-4 z"
           style="fill:#042e5b;stroke-width:0.264582"
           id="path6" />
        <path
           d="m 13.4938,52.8832 h 43.7885 v 5e-4 4.2329 h -5e-4 -43.788 v -5e-4 z"
           style="fill:#042e5b;stroke-width:0.264582"
           id="path36" />
        <path
           d="m 11.3837,68.2291 h 31.835725 v 3e-4 4.233 H 43.219061 11.3837 v -3e-4 z"
           style="fill:#042e5b;stroke-width:0.264582"
           id="path37" />
        <path
           d="M 9.27365,83.5749 H 53.0622 v 2e-4 4.2331 h -5e-4 -43.78805 v -1e-4 z"
           style="fill:#042e5b;stroke-width:0.264582"
           id="path38" />
      </g>
      <g
         id="g42"
         style="display:none">
        <path
           d="m 15.6038,37.5374 h 43.7885 v 6e-4 4.2327 h -5e-4 -43.788 v -6e-4 z"
           style="fill:#042e5b;stroke-width:0.264582"
           id="path39" />
        <path
           d="m 13.4938,52.8832 h 43.7885 v 5e-4 4.2329 h -5e-4 -43.788 v -5e-4 z"
           style="fill:#042e5b;stroke-width:0.264582"
           id="path40" />
        <path
           d="m 11.3837,68.2291 h 41.159976 v 3e-4 4.233 H 52.543206 11.3837 v -3e-4 z"
           style="fill:#042e5b;stroke-width:0.264582"
           id="path41" />
        <path
           d="M 9.27365,83.5749 H 53.0622 v 2e-4 4.2331 h -5e-4 -43.78805 v -1e-4 z"
           style="fill:#042e5b;stroke-width:0.264582"
           id="path42" />
      </g>
      <g
         id="g2"
         style="display:none">
        <path
           d="m 10.6803,73.3444 h 43.7886 v 2e-4 4.2331 h -5e-4 -43.7881 v -3e-4 z"
           style="fill:#042e5b;stroke-width:0.264583"
           id="path1" />
        <path
           d="m 14.1971,47.768 h 43.7885 v 5e-4 4.2328 h -5e-4 -43.788 v -5e-4 z"
           style="fill:#042e5b;stroke-width:0.264583"
           id="path2" />
      </g>
      <g
         id="g5"
         style="display:none">
        <path
           d="M 9.80116,79.077 H 53.5897 v 2e-4 4.2331 h -5e-4 -43.78804 v -2e-4 z"
           style="fill:#042e5b;stroke-width:0.264583"
           id="path3" />
        <path
           d="m 12.4387,60.5562 h 43.7886 v 4e-4 4.2329 h -5e-4 -43.7881 v -4e-4 z"
           style="display:inline;fill:#042e5b;stroke-width:0.264583"
           id="path4" />
        <path
           d="m 15.0763,42.0353 h 43.7885 v 6e-4 4.2328 h -5e-4 -43.788 v -6e-4 z"
           style="fill:#042e5b;stroke-width:0.264583"
           id="path5" />
      </g>
      <g
         id="g44"
         style="display:none">
        <path
           d="m 14.1971,48.2089 h 43.7885 v 6e-4 4.2328 h -5e-4 -43.788 v -5e-4 z"
           style="fill:#042e5b;stroke-width:0.264582"
           id="path43" />
        <path
           d="m 10.6803,72.9034 h 43.7886 v 2e-4 4.2331 h -5e-4 -43.7881 v -2e-4 z"
           style="fill:#042e5b;stroke-width:0.264582"
           id="path44" />
      </g>
      <g
         id="g50">
        <path
           d="m 10.1286,79.077 h 41.010417 v 2e-4 4.2331 H 51.13854 10.1286 v -2e-4 z"
           style="fill:#042e5b;stroke-width:0.264583"
           id="path48" />
        <path
           d="m 12.657,60.5562 h 41.010417 v 4e-4 4.2329 H 53.66694 12.657 v -4e-4 z"
           style="fill:#042e5b;stroke-width:0.264583"
           id="path49" />
        <path
           d="m 15.1854,42.0353 h 41.010417 v 6e-4 4.2328 H 56.19534 15.1854 v -6e-4 z"
           style="fill:#042e5b;stroke-width:0.264583"
           id="path50" />
      </g>
    </g>
  </g>
</svg>
