<?xml version="1.0" encoding="UTF-8" standalone="no"?>
<!-- Created with Inkscape (http://www.inkscape.org/) -->

<svg
   width="470"
   height="470"
   viewBox="0 0 124.35416 124.35417"
   version="1.1"
   id="svg1"
   xmlns="http://www.w3.org/2000/svg"
   xmlns:svg="http://www.w3.org/2000/svg">
  <defs
     id="defs1">
    <clipPath
       id="ic">
      <rect
         x="40"
         y="40"
         width="944"
         height="944"
         rx="210"
         id="rect1-0" />
    </clipPath>
    <filter
       id="filter3837"
       height="1"
       width="1"
       y="0"
       x="0">
      <feTurbulence
         id="feTurbulence3839"
         numOctaves="4"
         seed="0"
         type="fractalNoise"
         baseFrequency="0.050000000000000003" />
      <feDiffuseLighting
         id="feDiffuseLighting3843"
         lighting-color="#f5f6ce"
         surfaceScale="0.5"
         kernelUnitLength="0.01"
         diffuseConstant="1.10000002">
        <feDistantLight
           id="feDistantLight3845"
           elevation="65"
           azimuth="75" />
      </feDiffuseLighting>
    </filter>
    <clipPath
       id="rounded_canvas">
      <rect
         x="0"
         y="0"
         width="124.35416"
         height="124.35417"
         rx="29.632999"
         ry="29.632999"
         id="rect1" />
    </clipPath>
  </defs>
  <g
     clip-path="url(#rounded_canvas)"
     id="g1">
    <g
       id="layer1"
       transform="translate(-1.3229166,-0.49574867)">
      <g
         id="background"
         transform="matrix(0.41451389,0,0,0.41451389,-34.236988,-57.643967)"
         style="stroke-width:0.638298">
        <rect
           id="rect3722"
           style="color:#000000;mix-blend-mode:normal;fill-rule:evenodd;stroke-width:0.638298;filter:url(#filter3837)"
           height="300"
           width="300"
           y="140.25999"
           x="85.787003" />
      </g>
      <path
         id="topmost_spike"
         style="fill:#042e5b;stroke-width:0.264583"
         d="m 17.5774,26.226945 h 43.788545 v 0.52917 H 17.5774 Z" />
      <g
         clip-path="url(#ic)"
         id="letter_a"
         transform="matrix(0.09921888,0,0,0.09921875,36.710833,13.063457)"
         style="stroke-width:2.80473">
        <!-- LEFT LEG &#8212; pointed apex, thick, straight vertical outer left -->
        <!-- Outer left: x=160 straight down. Inner: x=380 straight down. Apex tip: x=270,y=100 -->
        <polygon
           points="380,900 160,900 270,100 380,100 "
           fill="#138ec7"
           id="polygon2"
           style="display:inline;fill:#042e5b;fill-opacity:1;stroke-width:2.80473" />
        <!-- RIGHT LEG &#8212; shares apex point, splays to the right -->
        <polygon
           points="270,100 380,100 840,900 660,900 "
           fill="#138ec7"
           id="polygon3"
           style="display:inline;fill:#042e5b;fill-opacity:1;stroke-width:2.80473" />
        <!-- KINETIC SLASH &#8212; dark shading on right side of right leg -->
        <polygon
           points="340,100 380,100 840,900 800,900 "
           fill="#127db3"
           opacity="0.72"
           id="polygon4"
           style="display:inline;fill:#042e5b;fill-opacity:1;stroke-width:2.80473" />
        <!-- CROSSBAR &#8212; sits between left leg right edge and right leg inner edge -->
        <polygon
           points="128,137 100,152 176,152 176,137 "
           fill="#3CBBEB"
           style="color:#000000;font-weight:400;font-size:16px;font-family:'Anthropic Sans', '-apple-system', BlinkMacSystemFont, 'Segoe UI', sans-serif;dominant-baseline:auto;text-anchor:start;display:inline;fill:#042e5b;fill-opacity:1;stroke:none;stroke-width:2.80473px;stroke-linecap:butt;stroke-linejoin:miter"
           id="polygon3-5"
           transform="matrix(5.9935989,0,0,5.5199947,-515.09493,-245.87934)" />
        <!-- STREAKS &#8212; right side only, angled along right leg direction -->
      </g>
      <g
         id="spikes"
         transform="matrix(0.66,0,0,0.66,3.9687497,3.1415822)">
        <path
           d="m 18.48785,50.478704 h 66.3462 v 0 0.8017 h -7e-4 -66.3455 v 0 z"
           style="fill:#042e5b;stroke-width:0.400884"
           id="path10" />
        <path
           d="m 16.35645,65.979504 h 66.3463 v 2e-4 0.8016 h -8e-4 -66.3455 v -2e-4 z"
           style="fill:#042e5b;stroke-width:0.400884"
           id="path14" />
        <path
           d="m 14.22505,81.480304 h 66.3463 v 3e-4 0.8015 h -8e-4 -66.3455 v -2e-4 z"
           style="fill:#042e5b;stroke-width:0.400884"
           id="path18" />
        <path
           d="m 12.09375,96.981204 h 58.72836 v 3e-4 0.8015 H 70.821491 12.09375 v -4e-4 z"
           style="fill:#042e5b;stroke-width:0.377168"
           id="path22" />
        <path
           d="M 9.9623497,112.482 H 76.30865 v 0 0.802 h -8e-4 -66.3455003 v -0.001 z"
           style="fill:#042e5b;stroke-width:0.400884"
           id="path26" />
        <path
           d="M 7.8309697,127.983 H 74.17725 v 0 0.802 h -8e-4 -66.3454803 v -0.001 z"
           style="fill:#042e5b;stroke-width:0.400884"
           id="path30" />
        <path
           d="M 5.6996097,143.484 H 72.04585 v 0 0.801 h -7e-4 -66.3455403 v 0 z"
           style="fill:#042e5b;stroke-width:0.400884"
           id="path34" />
      </g>
    </g>
  </g>
</svg>
